<svg width="28" height="32" viewBox="0 0 28 32" xmlns="http://www.w3.org/2000/svg" fill="none"><path d="M9.324 3.879l.733 5.444-8.602 11.147c-.525.266-.532.916-.538 1.565.25 1.165 1.68 2.056 2.865 1.132l7.502-5.42 1.094 8.816-2.248 2.755c-.263.133-.397.524-.269.782-.006.649.513 1.032 1.167 1.024l8.901-1.282c.654-.008 1.051-.533 1.057-1.182l-.385-.774-3.116-2.297-.965-8.557 8.468 3.138c1.436.241 2.621-.683 2.505-2.239.006-.649-.513-1.032-.904-1.157l-11.296-8.166-.733-5.444c-.116-1.557-1.54-3.097-3.11-2.947-1.442.408-2.242 2.106-2.126 3.663z" fill="#0B4560"/></svg>