<svg fill="none" xmlns="http://www.w3.org/2000/svg"><symbol id="b" preserveAspectRatio="none" viewBox="0 0 1048 1048"><path fill="#EEF5FB" d="M0 0h1048v1048H0z"/></symbol><symbol id="c" viewBox="0 0 1048 1048"><path d="M512.429 516.118c-.235 0-.47-.116-.705-.232-.117-.231-.235-.347-.235-.578v-.348l10.337-27.549c.118-.348.235-.579.47-.811.235-.231.587-.347 1.057-.347h5.521c.47 0 .822.116 1.057.347.235.232.47.463.588.811l10.219 27.434c0 .115.118.231.118.347a.882.882 0 01-.235.579c-.235.231-.353.231-.705.231h-4.581c-.353 0-.705-.116-.94-.347-.235-.232-.352-.347-.352-.579l-1.88-4.746h-12.216l-1.762 4.746c-.118.116-.235.347-.353.579-.117.231-.47.347-.939.347h-4.464v.116zm9.28-11.113h8.927l-4.464-12.27-4.463 12.27zM553.19 516.465c-1.88 0-3.524-.231-4.816-.694-1.292-.463-2.232-.926-3.054-1.621a6.372 6.372 0 01-1.645-2.084c-.352-.694-.47-1.389-.587-1.967 0-.232 0-.463.235-.579a.901.901 0 01.587-.232h4.229c.352 0 .587.116.705.232.117.116.352.347.352.579.235.694.705 1.157 1.41 1.504.704.348 1.527.463 2.584.463.705 0 1.409-.115 1.997-.347.587-.231 1.057-.463 1.292-.926.352-.347.47-.926.47-1.505 0-.81-.235-1.504-.705-1.852-.47-.463-1.292-.694-2.467-.694h-2.349c-.235 0-.47-.116-.705-.232-.117-.231-.235-.347-.235-.694v-2.084c0-.231.118-.463.235-.694.117-.232.352-.232.705-.232h2.232c.939 0 1.644-.231 2.114-.579.47-.347.705-.926.705-1.62 0-.463-.118-.926-.353-1.274a2.757 2.757 0 00-1.057-.926c-.47-.231-1.174-.347-1.997-.347-1.174 0-2.114.232-2.584.579-.47.347-.94.926-1.175 1.621-.117.231-.235.347-.352.463-.117.115-.352.115-.705.115h-4.111a.9.9 0 01-.587-.231.875.875 0 01-.235-.579c0-.81.235-1.505.704-2.315.353-.81.94-1.505 1.762-2.199.705-.695 1.762-1.158 2.937-1.621 1.175-.347 2.702-.579 4.464-.579 2.349 0 4.229.347 5.638.926 1.41.579 2.349 1.389 3.054 2.315.588.926.94 1.968.94 3.126 0 1.042-.235 1.852-.587 2.662-.353.81-1.175 1.389-2.115 1.968 1.292.463 2.232 1.273 2.702 2.199a7.672 7.672 0 01.705 3.241c0 1.389-.47 2.547-1.292 3.589-.823 1.042-1.997 1.736-3.642 2.315-1.527.579-3.406.81-5.403.81zM568.813 516.118c-.235 0-.47-.116-.705-.347-.235-.232-.352-.463-.352-.695v-20.141c0-.348.117-.579.352-.811.235-.231.47-.347.705-.347h4.346c.235 0 .587.116.705.347.235.232.352.463.352.811v16.09l-1.762-.926 11.277-15.512c.118-.231.353-.347.47-.463.117-.115.47-.231.705-.231h3.876c.235 0 .47.116.705.347.235.232.352.463.352.695v20.141c0 .347-.117.579-.352.81-.235.232-.47.348-.705.348h-4.346c-.235 0-.587-.116-.705-.348-.235-.231-.352-.463-.352-.81v-15.627l1.762.347-11.277 15.627c-.118.232-.352.348-.47.463-.235.116-.47.232-.705.232h-3.876zM595.948 516.118c-.235 0-.47-.116-.705-.232-.118-.116-.235-.347-.235-.694v-20.373c0-.232.117-.463.235-.579.235-.116.352-.231.587-.231h4.346c.47 0 .823.231 1.175.81l6.343 11.112 6.226-11.112c.235-.463.705-.81 1.175-.81h4.228c.235 0 .47.115.588.231a.88.88 0 01.235.579v20.373c0 .231-.118.463-.235.694-.118.116-.353.232-.705.232h-4.581c-.235 0-.47-.116-.705-.232-.117-.116-.235-.347-.235-.694v-14.701l1.997.347-6.108 10.881c-.118.232-.353.463-.47.695-.118.231-.47.347-.822.347h-1.645c-.352 0-.587-.116-.822-.232-.235-.231-.353-.463-.47-.694l-5.991-10.534 1.762-.347v14.238c0 .231-.117.463-.235.694-.117.116-.352.232-.705.232h-4.228zM633.067 515.539l-8.81-20.141c-.117-.231-.117-.463-.117-.579 0-.231.117-.463.352-.694.235-.232.352-.232.705-.232h4.111c.353 0 .705.116.822.232.118.231.353.347.353.579l6.461 15.974-3.877 4.861zm-5.286 8.682c-.352 0-.587-.116-.822-.347-.235-.232-.353-.463-.353-.695v-2.894c0-.347.118-.578.353-.81.235-.231.47-.347.822-.347h1.41c.587 0 1.057-.116 1.409-.347.353-.232.705-.579.94-1.042.235-.463.587-1.158.94-1.968l8.81-20.952c.117-.231.235-.463.47-.578.235-.116.47-.232.822-.232h3.994c.235 0 .47.116.587.232.235.231.235.347.235.578v.232c0 .116 0 .231-.117.347l-8.223 19.447c-.587 1.273-1.175 2.547-1.762 3.704-.587 1.158-1.292 2.084-1.997 3.01-.705.81-1.527 1.505-2.467 1.968-.94.463-1.997.694-3.171.694h-1.88zM657.853 516.118c-.235 0-.588-.116-.705-.347-.235-.232-.353-.464-.353-.811v-15.974h-6.813c-.352 0-.587-.116-.822-.347-.235-.232-.352-.463-.352-.695v-3.009c0-.348.117-.579.352-.811.235-.231.47-.347.822-.347h19.97c.235 0 .587.116.704.347.235.232.353.463.353.811v2.894c0 .231-.118.578-.353.694-.234.232-.469.347-.704.347h-6.813v16.09c0 .347-.118.579-.353.811-.235.231-.47.347-.705.347h-4.228zM512.429 560.336c-.235 0-.47-.115-.705-.231-.117-.232-.235-.347-.235-.579v-.347l10.337-27.434c.118-.347.235-.579.47-.81.235-.232.587-.348 1.057-.348h5.521c.47 0 .822.116 1.057.348.235.231.47.463.588.81l10.219 27.434c0 .116.118.231.118.347a.88.88 0 01-.235.579c-.235.231-.353.231-.705.231h-4.581c-.353 0-.705-.115-.94-.347-.235-.231-.352-.347-.352-.579l-1.88-4.746h-12.216l-1.762 4.746c-.118.116-.235.348-.353.579-.117.232-.47.347-.939.347h-4.464zm9.28-11.112h8.927l-4.464-12.27-4.463 12.27zM543.558 560.336c-.235 0-.588-.115-.705-.347-.235-.232-.353-.463-.353-.695v-3.241c0-.578.353-.926 1.058-1.041.822-.116 1.527-.463 1.996-1.158.47-.695.823-1.736 1.058-3.241.235-1.505.352-3.241.352-5.441v-5.903c0-.347.118-.579.352-.81.235-.232.47-.348.823-.348h16.093c.352 0 .587.116.822.348.235.231.352.463.352.81v19.91c0 .347-.117.578-.352.81-.235.232-.47.347-.822.347h-4.347c-.352 0-.587-.115-.822-.347-.235-.232-.352-.463-.352-.81v-15.974h-5.639v2.546c0 2.663-.117 4.978-.47 6.83-.352 1.852-.822 3.357-1.527 4.514-.704 1.158-1.644 1.968-2.936 2.431-1.175.579-2.702.81-4.581.81zM571.75 560.336c-.235 0-.588-.115-.705-.347-.235-.231-.353-.463-.353-.81v-20.026c0-.347.118-.579.353-.81.235-.232.47-.347.705-.347h4.346c.352 0 .587.115.822.347.235.231.352.463.352.81v5.788h4.229c2.937 0 5.169.694 6.696 2.083 1.527 1.39 2.349 3.242 2.349 5.672 0 2.547-.822 4.399-2.467 5.672-1.644 1.274-3.876 1.853-6.813 1.853h-9.514v.115zm5.286-4.514h3.876c1.292 0 2.232-.232 2.819-.695.587-.463.94-1.273.94-2.315s-.235-1.852-.822-2.431c-.588-.578-1.527-.81-2.82-.81h-3.876v6.251h-.117zM594.656 560.336c-.235 0-.47-.115-.705-.231a.877.877 0 01-.235-.579c0-.116 0-.232.117-.347 0-.116.118-.232.235-.348l4.699-7.524 5.756.926-4.464 7.409c-.117.115-.235.347-.352.463-.235.116-.353.231-.588.231h-4.463zm13.861 0c-.353 0-.588-.115-.823-.347-.235-.232-.352-.463-.352-.81v-6.251h-3.876v-.232c-3.055 0-5.286-.694-6.813-1.967-1.528-1.274-2.35-3.126-2.35-5.325 0-2.431.822-4.283 2.35-5.441 1.527-1.273 3.758-1.852 6.695-1.852h9.515c.235 0 .587.116.705.348.235.231.352.463.352.81v19.91c0 .347-.117.578-.352.81-.235.232-.47.347-.705.347h-4.346zm-4.934-11.807h4.111v-5.903h-3.876c-1.175 0-2.114.231-2.584.694-.588.463-.823 1.158-.823 2.2 0 .926.235 1.62.823 2.199.352.463 1.174.81 2.349.81zM620.733 560.336c-.235 0-.587-.115-.705-.347-.235-.231-.352-.463-.352-.81v-20.026c0-.347.117-.579.352-.81.235-.232.47-.347.705-.347h4.346c.235 0 .588.115.705.347.235.231.353.463.353.81v7.293h8.81v-7.293c0-.347.117-.579.352-.81.235-.232.47-.347.705-.347h4.346c.235 0 .587.115.705.347.117.231.352.463.352.81v20.026c0 .347-.117.579-.352.81-.235.232-.47.347-.705.347h-4.346c-.235 0-.587-.115-.705-.347-.235-.231-.352-.463-.352-.81v-7.64h-8.81v7.64c0 .347-.118.579-.353.81-.235.232-.47.347-.705.347h-4.346zM657.03 560.683c-2.114 0-3.993-.347-5.638-1.157s-2.819-1.852-3.759-3.357c-.94-1.505-1.41-3.241-1.527-5.209v-1.736-1.737c.117-2.083.587-3.82 1.527-5.324.94-1.505 2.114-2.547 3.759-3.357 1.645-.811 3.524-1.158 5.638-1.158 1.88 0 3.524.232 4.934.81 1.41.579 2.467 1.158 3.289 1.968.822.811 1.527 1.621 1.997 2.547.47.81.705 1.62.705 2.315 0 .347-.118.579-.353.81-.235.232-.47.348-.822.348h-4.581c-.353 0-.587-.116-.705-.232-.117-.116-.352-.347-.47-.694-.352-1.042-.822-1.737-1.527-2.084-.587-.463-1.409-.695-2.349-.695-1.292 0-2.349.463-3.054 1.274-.705.81-1.175 2.083-1.175 3.82v3.009c0 1.737.47 3.01 1.175 3.82.705.81 1.762 1.158 3.054 1.158 1.057 0 1.762-.232 2.467-.695.587-.463 1.057-1.157 1.527-2.083.117-.348.352-.579.47-.695.117-.116.352-.231.704-.231h4.582c.234 0 .587.115.822.347.235.231.352.463.352.81 0 .463-.117 1.042-.47 1.736-.235.695-.704 1.274-1.174 1.968-.47.695-1.175 1.274-1.997 1.852-.823.579-1.88 1.042-3.054 1.389-1.41.348-2.82.463-4.347.463z" fill="#0B4560"/><g clip-path="url(#a)" fill="#0B4560"><path fill-rule="evenodd" clip-rule="evenodd" d="M398.677 494.122l-29.299 29.134c6.523 6.592 17.323 6.592 23.846 0l.584-.579c-.657-.388-1.32-.771-1.993-1.16-.521-.301-1.049-.606-1.585-.919.214-.213.321-.319.427-.532l.535-.532c.107-.106.214-.106.321-.106.909.266 1.844.532 2.78.797l1.545.441 6.756-6.694-.183-.163c-.201-.177-.386-.34-.526-.548-.57-.567-1.235-.945-1.901-1.323a16.47 16.47 0 01-.986-.591c-2.459-1.595-4.919-3.19-7.485-4.679-.054 0-.08-.026-.107-.053-.027-.026-.054-.053-.107-.053.146-.218.342-.386.52-.539.082-.071.161-.138.229-.205h.213c.428.106.829.212 1.23.319.401.106.802.212 1.23.319 1.176.319 2.352.638 3.529.85.106 0 .213 0 .32-.106.211-.279.468-.513.741-.761.142-.129.289-.263.436-.409.32-.319.534-.425.962-.106l.962.957a.511.511 0 010 .744c-.107.107-.214.213-.32.426.053 0 .106.026.16.053.053.026.107.053.16.053.909.213 1.791.452 2.674.691.882.239 1.764.479 2.673.691h.05l15.562-15.417c-6.63-6.593-17.323-6.593-23.953 0z"/><path d="M400.281 556.112l21.6-21.479c7.699-7.656 19.355-8.613 25.984-2.02l-9.409 9.357-12.191 12.015c-7.699 7.762-19.354 8.613-25.984 2.127z"/><path fill-rule="evenodd" clip-rule="evenodd" d="M387.77 537.4l-19.354 19.246c6.63 6.592 18.285 5.635 25.984-2.02l63.624-64.011c-6.63-6.592-18.285-5.635-25.984 2.021l-20.794 21.026c.169.727.35 1.466.53 2.204.241.983.481 1.967.695 2.924v.106l.321-.319c.321-.212.535-.319.856-.106.103.103.217.205.335.311.25.224.516.464.734.752.214.213.214.426 0 .638a6.147 6.147 0 01-1.176 1.17c-.179.178-.258.256-.275.347-.013.071.013.15.061.291.192.699.422 1.398.644 2.075.15.455.296.9.425 1.327.107.319.214.665.321 1.01.107.346.214.692.321 1.011.107.212 0 .425-.214.531l-.428.426-.214.212c-.16-.212-.294-.399-.427-.585-.134-.186-.268-.372-.428-.584-1.002-1.395-1.963-2.832-2.933-4.284-.583-.872-1.17-1.75-1.772-2.628-.214-.266-.401-.558-.588-.85a9.714 9.714 0 00-.588-.851 12.146 12.146 0 00-.598-.681l-6.914 6.991c.16.47.317.951.454 1.452.107.372.214.718.321 1.063.107.346.214.691.321 1.064.107.212 0 .319-.107.425l-.963.957a2.17 2.17 0 00-.16-.266c-.053-.08-.107-.16-.16-.266-.273-.422-.547-.836-.817-1.246-.274-.415-.545-.826-.811-1.239L387.77 537.4z"/></g><path d="M484.756 486.253v74.856" stroke="#0B4560" stroke-width="3" stroke-miterlimit="10"/><defs><clipPath id="a"><path fill="#fff" transform="translate(368.416 486.253)" d="M0 0h89.608v74.749H0z"/></clipPath></defs></symbol><use xmlns:xlink="http://www.w3.org/1999/xlink" xlink:href="#b"/><use xmlns:xlink="http://www.w3.org/1999/xlink" xlink:href="#c"/></svg>