<svg width="135" height="35" viewBox="0 0 135 35" xmlns="http://www.w3.org/2000/svg" fill="none"><path d="M62.679 14.216c-.098 0-.196-.048-.294-.096-.049-.097-.098-.145-.098-.241v-.145l4.307-11.479c.049-.145.098-.241.196-.338.098-.096.245-.145.441-.145h2.3c.196 0 .343.048.441.145.098.096.196.193.245.338l4.258 11.431.049.145c0 .096-.049.193-.098.241-.098.097-.147.097-.294.097h-1.909c-.147 0-.294-.048-.392-.145-.098-.096-.147-.145-.147-.241l-.783-1.978h-5.09l-.734 1.978-.147.241c-.049.097-.196.145-.391.145h-1.86v.048zm3.867-4.63h3.72l-1.86-5.113-1.86 5.113zM79.662 14.36c-.783 0-1.468-.096-2.007-.289-.538-.193-.93-.386-1.273-.675-.343-.289-.538-.579-.685-.868-.147-.289-.196-.579-.245-.82 0-.096 0-.193.098-.241.049-.048.147-.097.245-.097h1.762c.147 0 .245.048.294.097.049.048.147.145.147.241.098.289.294.482.587.627.294.145.636.193 1.077.193.294 0 .587-.048.832-.145.245-.096.441-.193.538-.386.147-.145.196-.386.196-.627 0-.338-.098-.627-.294-.772-.196-.193-.538-.289-1.028-.289h-.979c-.098 0-.196-.048-.294-.096-.049-.097-.098-.145-.098-.289v-.868c0-.096.049-.193.098-.289.049-.096.147-.096.294-.096h.93c.392 0 .685-.096.881-.241.196-.145.294-.386.294-.675 0-.193-.049-.386-.147-.531-.098-.145-.245-.289-.441-.386-.196-.096-.489-.145-.832-.145-.489 0-.881.096-1.077.241-.196.145-.392.386-.489.675l-.147.193c-.049.048-.147.048-.294.048h-1.713c-.098 0-.196-.048-.245-.096-.049-.048-.098-.145-.098-.241 0-.338.098-.627.294-.965.147-.338.391-.627.734-.916.294-.289.734-.482 1.224-.675.489-.145 1.126-.241 1.86-.241.979 0 1.762.145 2.349.386.587.241.979.579 1.272.965.245.386.392.82.392 1.302 0 .434-.098.772-.245 1.109-.147.338-.49.579-.881.82.538.193.93.531 1.126.916.196.434.294.868.294 1.35 0 .579-.196 1.061-.538 1.495-.343.434-.832.723-1.517.965-.636.241-1.419.338-2.251.338zM86.172 14.216c-.098 0-.196-.048-.294-.145-.098-.096-.147-.193-.147-.289v-8.392c0-.145.049-.241.147-.338.098-.096.196-.145.294-.145h1.811c.098 0 .245.048.294.145.098.096.147.193.147.338v6.704l-.734-.386 4.699-6.463c.049-.096.147-.145.196-.193.049-.048.196-.096.294-.096h1.615c.098 0 .196.048.294.145.098.096.147.193.147.289v8.392c0 .145-.049.241-.147.338-.098.096-.196.145-.294.145h-1.811c-.098 0-.245-.048-.294-.145-.098-.097-.147-.193-.147-.338v-6.511l.734.145-4.699 6.511c-.049.097-.147.145-.196.193-.098.048-.196.096-.294.096h-1.615zM97.478 14.216c-.098 0-.196-.048-.294-.097-.049-.048-.098-.145-.098-.289v-8.489c0-.096.049-.193.098-.241.098-.048.147-.096.245-.096h1.811c.196 0 .343.096.489.338l2.643 4.63 2.594-4.63c.098-.193.293-.338.489-.338h1.762c.098 0 .196.048.245.096.049.048.098.145.098.241v8.489c0 .096-.049.193-.098.289-.049.048-.147.097-.294.097h-1.909c-.098 0-.195-.048-.293-.097-.049-.048-.098-.145-.098-.289v-6.125l.832.145-2.545 4.534-.196.289c-.049.097-.196.145-.343.145h-.685c-.147 0-.245-.048-.342-.097-.098-.096-.147-.193-.196-.289l-2.496-4.389.734-.145v5.932c0 .096-.049.193-.098.289-.049.048-.147.097-.294.097h-1.762zM112.945 13.975l-3.671-8.392c-.049-.096-.049-.193-.049-.241 0-.096.049-.193.147-.289.098-.096.147-.096.293-.096h1.713c.147 0 .294.048.343.096.049.096.147.145.147.241l2.692 6.656-1.615 2.026zm-2.203 3.617c-.147 0-.245-.048-.342-.145-.098-.096-.147-.193-.147-.289v-1.206c0-.145.049-.241.147-.338.097-.096.195-.145.342-.145h.587c.245 0 .441-.048.588-.145.147-.096.293-.241.391-.434.098-.193.245-.482.392-.82l3.671-8.73c.049-.096.098-.193.196-.241.097-.048.195-.096.342-.096h1.664c.098 0 .196.048.245.096.098.096.098.145.098.241v.096l-.049.145-3.426 8.103c-.245.53-.49 1.061-.734 1.543-.245.482-.539.868-.832 1.254-.294.338-.637.627-1.028.82-.392.193-.832.289-1.322.289h-.783zM123.272 14.216c-.098 0-.245-.048-.294-.145-.098-.096-.147-.193-.147-.338v-6.656h-2.838c-.147 0-.245-.048-.343-.145-.098-.096-.147-.193-.147-.289v-1.254c0-.145.049-.241.147-.338.098-.096.196-.145.343-.145h8.32c.098 0 .245.048.294.145.098.096.147.193.147.338v1.206c0 .096-.049.241-.147.289-.098.096-.196.145-.294.145h-2.839v6.704c0 .145-.049.241-.146.338-.098.097-.196.145-.294.145h-1.762zM62.679 32.64c-.098 0-.196-.048-.294-.096-.049-.096-.098-.145-.098-.241v-.145l4.307-11.431c.049-.145.098-.241.196-.338.098-.096.245-.145.441-.145h2.3c.196 0 .343.048.441.145.098.097.196.193.245.338l4.258 11.431.049.145c0 .096-.049.193-.098.241-.098.096-.147.096-.294.096h-1.909c-.147 0-.294-.048-.392-.145-.098-.096-.147-.145-.147-.241l-.783-1.977h-5.09l-.734 1.977-.147.241c-.049.096-.196.145-.391.145h-1.86zm3.867-4.63h3.72l-1.86-5.113-1.86 5.113zM75.649 32.64c-.098 0-.245-.048-.294-.145-.098-.096-.147-.193-.147-.289v-1.35c0-.241.147-.386.441-.434.343-.048.636-.193.832-.482.196-.289.343-.724.441-1.351.098-.627.147-1.351.147-2.267v-2.46c0-.145.049-.241.147-.338.098-.096.196-.145.343-.145h6.705c.147 0 .245.048.343.145.098.096.147.193.147.338v8.296c0 .145-.049.241-.147.338-.098.096-.196.145-.343.145h-1.811c-.147 0-.245-.048-.343-.145-.098-.096-.147-.193-.147-.338v-6.656h-2.349v1.061c0 1.109-.049 2.074-.196 2.846-.147.772-.343 1.399-.636 1.881-.294.482-.685.82-1.224 1.013-.489.241-1.126.338-1.909.338zM87.396 32.64c-.098 0-.245-.048-.294-.145-.098-.096-.147-.193-.147-.338v-8.344c0-.145.049-.241.147-.338.098-.096.196-.145.294-.145h1.811c.147 0 .245.048.343.145.098.097.147.193.147.338v2.412h1.762c1.224 0 2.154.289 2.79.868.636.579.979 1.35.979 2.363 0 1.061-.343 1.833-1.028 2.363-.685.531-1.615.772-2.839.772h-3.965v.048zm2.203-1.881h1.615c.538 0 .93-.096 1.175-.289.245-.193.392-.53.392-.965 0-.434-.098-.772-.343-1.013-.245-.241-.636-.338-1.175-.338h-1.615v2.605h-.049zM96.94 32.64c-.098 0-.196-.048-.294-.096-.049-.048-.098-.145-.098-.241l.049-.145.098-.145 1.958-3.135 2.398.386-1.86 3.087-.147.193c-.098.048-.147.096-.245.096h-1.86zm5.775 0c-.147 0-.244-.048-.342-.145-.098-.096-.147-.193-.147-.338v-2.604h-1.615v-.096c-1.273 0-2.203-.289-2.839-.82-.636-.53-.979-1.302-.979-2.219 0-1.013.343-1.784.979-2.267.636-.53 1.566-.772 2.79-.772h3.964c.098 0 .245.048.294.145.098.096.147.193.147.338v8.296c0 .145-.049.241-.147.338-.098.096-.196.145-.294.145h-1.811zm-2.055-4.92h1.713v-2.46h-1.615c-.49 0-.882.096-1.077.289-.245.193-.343.482-.343.916 0 .386.098.675.343.916.147.193.489.338.979.338zM107.805 32.64c-.097 0-.244-.048-.293-.145-.098-.096-.147-.193-.147-.338v-8.344c0-.145.049-.241.147-.338.098-.096.196-.145.293-.145h1.811c.098 0 .245.048.294.145.098.097.147.193.147.338v3.039h3.671v-3.039c0-.145.049-.241.147-.338.097-.096.195-.145.293-.145h1.811c.098 0 .245.048.294.145.049.097.147.193.147.338v8.344c0 .145-.049.241-.147.338-.098.096-.196.145-.294.145h-1.811c-.098 0-.244-.048-.293-.145-.098-.096-.147-.193-.147-.338v-3.183h-3.671v3.183c0 .145-.049.241-.147.338-.098.096-.196.145-.294.145h-1.811zM122.929 32.785c-.881 0-1.664-.145-2.349-.482-.685-.338-1.175-.772-1.566-1.399-.392-.627-.588-1.351-.637-2.17v-1.447c.049-.868.245-1.592.637-2.219.391-.627.881-1.061 1.566-1.399.685-.338 1.468-.482 2.349-.482.783 0 1.469.096 2.056.338.587.241 1.028.482 1.37.82.343.338.637.675.832 1.061.196.338.294.675.294.965 0 .145-.049.241-.147.338-.098.096-.196.145-.342.145h-1.909c-.147 0-.245-.048-.294-.096-.049-.048-.147-.145-.196-.289-.146-.434-.342-.724-.636-.868-.245-.193-.587-.289-.979-.289-.538 0-.979.193-1.272.531-.294.338-.49.868-.49 1.592v1.254c0 .724.196 1.254.49 1.592.293.338.734.482 1.272.482.441 0 .734-.096 1.028-.289.245-.193.441-.482.636-.868.049-.145.147-.241.196-.289.049-.048.147-.096.294-.096h1.909c.097 0 .244.048.342.145.098.096.147.193.147.338 0 .193-.049.434-.196.723-.098.289-.293.531-.489.82-.196.289-.49.53-.832.772-.343.241-.783.434-1.273.579-.587.145-1.174.193-1.811.193z" fill="#0B4560"/><g clip-path="url(#a)" fill="#0B4560"><path fill-rule="evenodd" clip-rule="evenodd" d="M15.282 5.051l-12.208 12.139c2.718 2.747 7.218 2.747 9.936 0l.244-.241-.831-.483-.66-.383c.089-.089.134-.133.178-.222l.223-.222.134-.044 1.158.332.644.183 2.815-2.789-.076-.068c-.084-.074-.161-.142-.219-.229-.238-.236-.515-.394-.792-.551l-.411-.246c-1.025-.665-2.05-1.329-3.119-1.949l-.044-.022-.045-.022c.061-.091.143-.161.217-.225l.095-.086h.089l.512.133.512.133c.49.133.98.266 1.47.354l.134-.044c.088-.116.195-.214.309-.317l.182-.17c.134-.133.223-.177.401-.044l.401.399c.089.089.089.221 0 .31l-.134.177.067.022.067.022c.379.089.746.188 1.114.288.367.1.735.199 1.114.288h.021l6.484-6.424c-2.762-2.747-7.218-2.747-9.98 0z"/><path d="M15.951 30.88l9-8.949c3.208-3.19 8.064-3.589 10.827-.842l-3.921 3.899-5.079 5.006c-3.208 3.234-8.064 3.589-10.827.886z"/><path fill-rule="evenodd" clip-rule="evenodd" d="M10.738 23.083l-8.064 8.019c2.762 2.747 7.619 2.348 10.827-.842l26.51-26.671c-2.762-2.747-7.619-2.348-10.827.842l-8.664 8.761.221.918c.1.41.2.82.29 1.218v.044l.134-.133c.134-.089.223-.133.356-.044l.14.13c.104.093.215.193.306.313.089.089.089.177 0 .266-.134.177-.312.354-.49.487l-.114.144.025.121c.08.291.176.583.268.864l.177.553.134.421.134.421c.045.089 0 .177-.089.221l-.178.177-.089.089-.178-.244-.178-.244c-.418-.581-.818-1.18-1.222-1.785l-.738-1.095-.245-.354-.245-.354-.249-.284-2.881 2.913c.067.196.132.396.189.605l.134.443.134.443c.044.089 0 .133-.045.177l-.401.399-.067-.111-.067-.111-.34-.519-.338-.516-4.267 4.315z"/></g><path d="M51.148 1.772v31.19" stroke="#0B4560" stroke-width="3" stroke-miterlimit="10"/><defs><clipPath id="a"><path fill="#fff" d="M2.673 1.772h37.337v31.146h-37.337z"/></clipPath></defs></svg>